<?xml version="1.0"?><svg id="Layer_1" style="enable-background:new 0 0 24 24;" version="1.1" viewBox="0 0 24 24" xml:space="preserve" xmlns="http://www.w3.org/2000/svg" xmlns:xlink="http://www.w3.org/1999/xlink"><path d="M19,4h-1V3c0-0.6-0.4-1-1-1s-1,0.4-1,1v1H8V3c0-0.6-0.4-1-1-1S6,2.4,6,3v1H5C3.3,4,2,5.3,2,7v12c0,1.7,1.3,3,3,3h14  c1.7,0,3-1.3,3-3V7C22,5.3,20.7,4,19,4z M20,19c0,0.6-0.4,1-1,1H5c-0.6,0-1-0.4-1-1V10h16V19z M20,8H4V7c0-0.6,0.4-1,1-1h1v1  c0,0.6,0.4,1,1,1s1-0.4,1-1V6h8v1c0,0.6,0.4,1,1,1s1-0.4,1-1V6h1c0.6,0,1,0.4,1,1V8z"/><path d="M15.7,12.3c-0.4-0.4-1-0.4-1.4,0L11,15.6l-1.3-1.3c-0.4-0.4-1-0.4-1.4,0s-0.4,1,0,1.4l2,2C10.5,17.9,10.7,18,11,18  s0.5-0.1,0.7-0.3l4-4C16.1,13.3,16.1,12.7,15.7,12.3z"/></svg>
